<svg xmlns="http://www.w3.org/2000/svg" viewBox="0 0 96.58 96.58"><title>vk</title><path d="M74.6,42.26a23.41,23.41,0,0,0,3.73-6.48c.49-1.54.06-2.23-1.53-2.5a4.89,4.89,0,0,0-.83-.05h-9.4a2.1,2.1,0,0,0-2.21,1.51c-.55,1.39-1.12,2.77-1.78,4.11a33.73,33.73,0,0,1-5.5,8.45c-.52.55-1.09,1.24-1.95,1-1.08-.39-1.4-2.17-1.38-2.77V34.64c-.21-1.55-.55-2.24-2.09-2.54H41.91a3.11,3.11,0,0,0-2.65,1.32c-.4.47-.52.78.3.93a3.26,3.26,0,0,1,2.77,3,33.29,33.29,0,0,1,.14,7.81,7.24,7.24,0,0,1-.5,2.23,1.31,1.31,0,0,1-2.23.66,9.08,9.08,0,0,1-2.17-2.38A52.48,52.48,0,0,1,31.84,35a2.49,2.49,0,0,0-2.35-1.76c-2.82,0-5.64-.05-8.46,0-1.7,0-2.2.85-1.51,2.39A104.92,104.92,0,0,0,30.47,55.18,27.28,27.28,0,0,0,38.79,63a22.12,22.12,0,0,0,12.36,2.66c2-.1,2.66-.63,2.75-2.66a9,9,0,0,1,.91-4,1.8,1.8,0,0,1,2.87-.7,8.08,8.08,0,0,1,1.56,1.38c1.15,1.26,2.26,2.55,3.45,3.77a6.67,6.67,0,0,0,5.5,2.24h8.64c1.39-.09,2.11-1.8,1.31-3.35a16.55,16.55,0,0,0-2.08-3,80.16,80.16,0,0,0-5.81-5.84c-1.77-1.73-1.89-2.73-.46-4.73C71.36,46.53,73,44.43,74.6,42.26Z" transform="translate(-0.58 -0.58)" fill="#fff"/><path d="M48.88.58A48.29,48.29,0,1,0,97.17,48.88,48.29,48.29,0,0,0,48.88.58Zm0,90.45A42.16,42.16,0,1,1,91,48.88,42.16,42.16,0,0,1,48.88,91Z" transform="translate(-0.58 -0.58)" fill="#fff"/></svg>