<svg xmlns="http://www.w3.org/2000/svg" viewBox="0 0 512.5 512.5"><title>Ресурс 2</title><path d="M256.25.25c-141.36,0-256,114.64-256,256s114.64,256,256,256,256-114.64,256-256S397.61.25,256.25.25Zm0,490.11C127,490.36,22.14,385.55,22.14,256.25S127,22.14,256.25,22.14,490.36,127,490.36,256.25,385.55,490.36,256.25,490.36Z" fill="#fdfdff" stroke="#000" stroke-linecap="round" stroke-linejoin="round" stroke-width="0.5"/><path d="M374.2,138.38A165.64,165.64,0,0,0,256.32,89.5c-92,0-166.78,74.77-166.82,166.68A166.29,166.29,0,0,0,115,344.89l4,6.31-16.85,61.51,63.11-16.55,6.09,3.61A166.48,166.48,0,0,0,256.18,423h.07C348.15,423,423,348.23,423,256.31A165.66,165.66,0,0,0,374.2,138.38Zm-118,259.23A141.36,141.36,0,1,1,397.61,256.25,141.36,141.36,0,0,1,256.25,397.61Z" fill="#fff" stroke="#000" stroke-linecap="round" stroke-linejoin="round" stroke-width="0.5"/><path d="M357.38,302.17c-1.25-2.09-4.59-3.34-9.61-5.86s-29.65-14.63-34.25-16.3-7.94-2.51-11.28,2.51-13,16.31-15.87,19.65-5.85,3.76-10.86,1.25-21.16-7.8-40.31-24.87c-14.9-13.29-25-29.7-27.88-34.71s0-7.47,2.2-10.23c5.3-6.58,10.86-13.79,12.53-17.14s.83-6.27-.42-8.78-11.28-27.17-15.46-37.2c-4.07-9.77-8.2-8.45-11.28-8.6-2.92-.14-6.27-.17-9.61-.17A18.43,18.43,0,0,0,171.92,168c-4.59,5-17.54,17.14-17.54,41.8s18,48.5,20.47,51.84,35.35,54,85.63,75.67a289.49,289.49,0,0,0,28.58,10.56c12,3.81,22.93,3.27,31.57,2,9.63-1.44,29.65-12.13,33.83-23.83S358.64,304.26,357.38,302.17Z" fill="#f7f7fc" stroke="#000" stroke-linecap="round" stroke-linejoin="round" stroke-width="0.5"/></svg>