<svg width="26" height="26" viewBox="0 0 26 26" fill="none" xmlns="http://www.w3.org/2000/svg">
<path fill-rule="evenodd" clip-rule="evenodd" d="M22.0709 3.98008C19.6697 1.576 16.4765 0.251417 13.0751 0.25C6.06542 0.25 0.359083 5.95492 0.35625 12.9674C0.35625 15.2086 0.941333 17.3959 2.05342 19.3254L0.25 25.9143L6.99192 24.1449C8.85058 25.1578 10.9416 25.6919 13.0694 25.6933H13.0751C20.0833 25.6933 25.7897 19.9884 25.7925 12.9759C25.7925 9.57875 24.4722 6.38417 22.0709 3.98008ZM13.0751 23.5471H13.0708C11.1739 23.5457 9.31383 23.0371 7.69033 22.0723L7.305 21.8428L3.30433 22.8926L4.37108 18.9925L4.12033 18.593C3.06208 16.91 2.50392 14.9649 2.50392 12.9674C2.50675 7.13925 7.24833 2.39767 13.0793 2.39767C15.9028 2.39908 18.5562 3.49983 20.5523 5.49733C22.5469 7.49625 23.6463 10.1511 23.6448 12.9759C23.642 18.8041 18.9004 23.5471 13.0751 23.5471ZM18.8735 15.6293C18.5548 15.4692 16.9936 14.7014 16.7018 14.5952C16.4113 14.4889 16.2003 14.4365 15.9878 14.7538C15.7753 15.0712 15.1661 15.7866 14.9805 15.9991C14.7949 16.2116 14.6093 16.2371 14.292 16.0784C13.9747 15.9198 12.9504 15.584 11.7363 14.5017C10.7914 13.6588 10.1539 12.6189 9.96833 12.3002C9.78275 11.9814 9.9485 11.81 10.1086 11.6513C10.2517 11.5097 10.4259 11.2802 10.5846 11.0946C10.7433 10.909 10.7957 10.7772 10.9019 10.5647C11.0082 10.3522 10.9558 10.1667 10.875 10.008C10.7957 9.84792 10.1596 8.28392 9.89467 7.64783C9.63825 7.03158 9.37617 7.11375 9.18067 7.10525C8.9965 7.09675 8.784 7.09392 8.57292 7.09392C8.36042 7.09392 8.01617 7.17325 7.72433 7.49058C7.4325 7.80933 6.61225 8.57717 6.61225 10.1412C6.61225 11.7052 7.75125 13.2168 7.90992 13.4293C8.06858 13.6418 10.1511 16.8505 13.3386 18.2275C14.0979 18.5547 14.6901 18.7502 15.1505 18.8976C15.9113 19.1398 16.604 19.1044 17.1523 19.0237C17.7628 18.933 19.0322 18.2558 19.2971 17.5135C19.562 16.7712 19.562 16.1351 19.4827 16.0019C19.4033 15.8688 19.1894 15.788 18.8735 15.6293Z"/>
</svg>
