<svg width="27" height="30" viewBox="0 0 27 30" fill="none" xmlns="http://www.w3.org/2000/svg">
<path d="M0.0762634 5.44922C0.0762634 3.92578 0.581234 2.64974 1.59118 1.62109C2.60112 0.592447 3.85396 0.078125 5.3497 0.078125C7.07555 0.078125 8.57768 0.729166 9.85609 2.03125L24.7559 17.1875C26.2006 18.6849 26.9229 20.4492 26.9229 22.4805C26.9229 24.5508 26.2197 26.3086 24.8135 27.7539C23.4072 29.1992 21.6878 29.9219 19.6551 29.9219C17.6352 29.9219 15.8902 29.1862 14.42 27.7148L2.81845 15.8789C2.69061 15.7487 2.62669 15.6055 2.62669 15.4492C2.62669 15.2409 2.82165 14.9382 3.21156 14.541C3.60147 14.1439 3.89871 13.9453 4.10325 13.9453C4.26944 13.9453 4.41646 14.0104 4.5443 14.1406L16.165 25.9961C17.175 26.9987 18.3319 27.5 19.6359 27.5C20.991 27.5 22.1352 27.0117 23.0684 26.0352C24.0017 25.0586 24.4683 23.8802 24.4683 22.5C24.4683 21.1328 23.9825 19.9544 23.0109 18.9648L8.13024 3.78906C7.32484 2.96875 6.39799 2.55859 5.3497 2.55859C4.53152 2.55859 3.85396 2.83203 3.31703 3.37891C2.7801 3.92578 2.51163 4.61588 2.51163 5.44922C2.51163 6.51693 2.91433 7.46094 3.71973 8.28125L14.8611 19.6289C15.1934 19.9414 15.577 20.0977 16.0116 20.0977C16.3824 20.0977 16.6892 19.974 16.9321 19.7266C17.175 19.4792 17.2964 19.1667 17.2964 18.7891C17.2964 18.3724 17.1366 17.9883 16.817 17.6367L8.95481 9.62891C8.82697 9.4987 8.76305 9.35547 8.76305 9.19922C8.76305 8.99088 8.9612 8.6849 9.35751 8.28125C9.75382 7.8776 10.0542 7.67578 10.2588 7.67578C10.4122 7.67578 10.5528 7.74088 10.6807 7.87109L18.5429 15.8789C19.3483 16.6732 19.751 17.6432 19.751 18.7891C19.751 19.8568 19.3866 20.7617 18.6579 21.5039C17.9292 22.2461 17.0408 22.6172 15.9925 22.6172C14.8675 22.6172 13.915 22.207 13.1352 21.3867L1.99388 10.0391C0.715467 8.76302 0.0762634 7.23307 0.0762634 5.44922Z" fill="#232323"/>
</svg>
