<svg xmlns="http://www.w3.org/2000/svg" xmlns:xlink="http://www.w3.org/1999/xlink"><symbol id="facebook"><path d="M612 306C612 137.004 474.995 0 306 0 137.004 0 0 137.004 0 306c0 168.995 137.004 306 306 306 168.995 0 306-137.005 306-306zm-584.182 0C27.818 152.36 152.36 27.818 306 27.818S584.182 152.36 584.182 306 459.64 584.182 306 584.182 27.818 459.64 27.818 306z"/><path d="M317.739 482.617V306h58.279l9.208-58.529h-67.487v-29.348c0-15.272 5.007-29.849 26.928-29.849h43.813v-58.418h-62.201c-52.298 0-66.569 34.438-66.569 82.175v35.413h-35.885V306h35.885v176.617h58.029z"/></symbol><symbol id="instagram" viewBox="0 0 480 480"><path d="M240 0C107.453 0 0 107.453 0 240s107.453 240 240 240 240-107.453 240-240C479.852 107.516 372.484.148 240 0zm0 464C116.29 464 16 363.71 16 240S116.29 16 240 16s224 100.29 224 224c-.14 123.652-100.348 223.86-224 224zm0 0"/><path d="M344 96H136c-22.082.027-39.973 17.918-40 40v208c.027 22.082 17.918 39.973 40 40h208c22.082-.027 39.973-17.918 40-40V136c-.027-22.082-17.918-39.973-40-40zm24 248c0 13.254-10.746 24-24 24H136c-13.254 0-24-10.746-24-24V136c0-13.254 10.746-24 24-24h208c13.254 0 24 10.746 24 24zm0 0"/><path d="M240 160c-44.184 0-80 35.816-80 80s35.816 80 80 80 80-35.816 80-80c-.047-44.164-35.836-79.953-80-80zm0 144c-35.348 0-64-28.652-64-64s28.652-64 64-64 64 28.652 64 64c-.04 35.328-28.672 63.96-64 64zm0 0M328 128c-13.254 0-24 10.746-24 24s10.746 24 24 24 24-10.746 24-24-10.746-24-24-24zm0 32a8 8 0 1 1 0-16 8 8 0 0 1 0 16zm0 0"/></symbol></svg>