<svg xmlns="http://www.w3.org/2000/svg" xmlns:xlink="http://www.w3.org/1999/xlink"><symbol id="facebook" viewBox="0 0 612 612"><path d="M612 306C612 137 475 0 306 0S0 137 0 306s137 306 306 306 306-137 306-306zm-584.18 0C27.82 152.36 152.36 27.82 306 27.82S584.18 152.36 584.18 306 459.64 584.18 306 584.18 27.82 459.64 27.82 306z" fill="#fff"/><path d="M317.74 482.62V306H376l9.21-58.53h-67.47v-29.35c0-15.27 5-29.85 26.93-29.85h43.81v-58.41h-62.2c-52.3 0-66.57 34.44-66.57 82.18v35.41h-35.88V306h35.88v176.62z" fill="#fff"/></symbol><symbol id="instagram" viewBox="0 0 480 480"><path d="M240 0C107.45 0 0 107.45 0 240s107.45 240 240 240 240-107.45 240-240S372.48.15 240 0zm0 464C116.29 464 16 363.71 16 240S116.29 16 240 16s224 100.29 224 224-100.35 223.86-224 224z" fill="#fdfdff"/><path d="M344 96H136a40 40 0 0 0-40 40v208a40 40 0 0 0 40 40h208a40 40 0 0 0 40-40V136a40 40 0 0 0-40-40zm24 248a24 24 0 0 1-24 24H136a24 24 0 0 1-24-24V136a24 24 0 0 1 24-24h208a24 24 0 0 1 24 24z" fill="#fdfdff"/><path d="M240 160a80 80 0 1 0 80 80 80 80 0 0 0-80-80zm0 144a64 64 0 1 1 64-64 64 64 0 0 1-64 64zM328 128a24 24 0 1 0 24 24 24 24 0 0 0-24-24zm0 32a8 8 0 1 1 8-8 8 8 0 0 1-8 8z" fill="#fff"/></symbol><symbol id="vk" viewBox="0 0 96.58 96.58"><path d="M74.02 41.68a23.41 23.41 0 0 0 3.73-6.48c.49-1.54.06-2.23-1.53-2.5a4.89 4.89 0 0 0-.83-.05h-9.4a2.1 2.1 0 0 0-2.21 1.51c-.55 1.39-1.12 2.77-1.78 4.11a33.73 33.73 0 0 1-5.5 8.45c-.52.55-1.09 1.24-1.95 1-1.08-.39-1.4-2.17-1.38-2.77V34.06c-.21-1.55-.55-2.24-2.09-2.54h-9.75a3.11 3.11 0 0 0-2.65 1.32c-.4.47-.52.78.3.93a3.26 3.26 0 0 1 2.77 3 33.29 33.29 0 0 1 .14 7.81 7.24 7.24 0 0 1-.5 2.23 1.31 1.31 0 0 1-2.23.66 9.08 9.08 0 0 1-2.17-2.38 52.48 52.48 0 0 1-5.73-10.67 2.49 2.49 0 0 0-2.35-1.76c-2.82 0-5.64-.05-8.46 0-1.7 0-2.2.85-1.51 2.39A104.92 104.92 0 0 0 29.89 54.6a27.28 27.28 0 0 0 8.32 7.82 22.12 22.12 0 0 0 12.36 2.66c2-.1 2.66-.63 2.75-2.66a9 9 0 0 1 .91-4 1.8 1.8 0 0 1 2.87-.7 8.08 8.08 0 0 1 1.56 1.38c1.15 1.26 2.26 2.55 3.45 3.77a6.67 6.67 0 0 0 5.5 2.24h8.64c1.39-.09 2.11-1.8 1.31-3.35a16.55 16.55 0 0 0-2.08-3 80.16 80.16 0 0 0-5.81-5.84c-1.77-1.73-1.89-2.73-.46-4.73 1.57-2.24 3.21-4.34 4.81-6.51z" fill="#fff"/><path d="M48.3 0a48.29 48.29 0 1 0 48.29 48.3A48.29 48.29 0 0 0 48.3 0zm0 90.45A42.16 42.16 0 1 1 90.42 48.3 42.16 42.16 0 0 1 48.3 90.42z" fill="#fff"/></symbol><symbol id="whatsapp" viewBox="0 0 512.5 512.5"><path d="M256.25.25c-141.36 0-256 114.64-256 256s114.64 256 256 256 256-114.64 256-256-114.64-256-256-256zm0 490.11C127 490.36 22.14 385.55 22.14 256.25S127 22.14 256.25 22.14 490.36 127 490.36 256.25 385.55 490.36 256.25 490.36z" fill="#fdfdff" stroke="#000" stroke-linecap="round" stroke-linejoin="round" stroke-width=".5"/><path d="M374.2 138.38A165.64 165.64 0 0 0 256.32 89.5c-92 0-166.78 74.77-166.82 166.68a166.29 166.29 0 0 0 25.5 88.71l4 6.31-16.85 61.51 63.11-16.55 6.09 3.61A166.48 166.48 0 0 0 256.18 423h.07C348.15 423 423 348.23 423 256.31a165.66 165.66 0 0 0-48.8-117.93zm-118 259.23a141.36 141.36 0 1 1 141.41-141.36 141.36 141.36 0 0 1-141.36 141.36z" fill="#fff" stroke="#000" stroke-linecap="round" stroke-linejoin="round" stroke-width=".5"/><path d="M357.38 302.17c-1.25-2.09-4.59-3.34-9.61-5.86s-29.65-14.63-34.25-16.3-7.94-2.51-11.28 2.51-13 16.31-15.87 19.65-5.85 3.76-10.86 1.25-21.16-7.8-40.31-24.87c-14.9-13.29-25-29.7-27.88-34.71s0-7.47 2.2-10.23c5.3-6.58 10.86-13.79 12.53-17.14s.83-6.27-.42-8.78-11.28-27.17-15.46-37.2c-4.07-9.77-8.2-8.45-11.28-8.6-2.92-.14-6.27-.17-9.61-.17a18.43 18.43 0 0 0-13.36 6.28c-4.59 5-17.54 17.14-17.54 41.8s18 48.5 20.47 51.84 35.35 54 85.63 75.67a289.49 289.49 0 0 0 28.58 10.56c12 3.81 22.93 3.27 31.57 2 9.63-1.44 29.65-12.13 33.83-23.83s4.18-21.78 2.92-23.87z" fill="#f7f7fc" stroke="#000" stroke-linecap="round" stroke-linejoin="round" stroke-width=".5"/></symbol></svg>